<svg width="678" height="176" viewBox="0 0 678 176" fill="none" xmlns="http://www.w3.org/2000/svg">
<path d="M0 124.706V41.6874H44.7252C56.2852 41.6874 64.8157 43.7431 70.3167 47.8545C75.8176 51.8868 78.5681 57.0656 78.5681 63.3909C78.5681 67.5813 77.3722 71.337 74.9805 74.6577C72.6685 77.8994 69.2803 80.469 64.8157 82.3666C60.3512 84.2642 54.8502 85.213 48.3128 85.213L50.7045 78.8087C57.2419 78.8087 62.8624 79.7179 67.5662 81.5364C72.3496 83.3549 76.017 86.0036 78.5681 89.4825C81.199 92.8823 82.5145 96.9937 82.5145 101.817C82.5145 109.012 79.4849 114.625 73.4259 118.658C67.4466 122.69 58.6769 124.706 47.1169 124.706H0ZM27.744 105.137H44.7252C47.8345 105.137 50.1465 104.584 51.6612 103.477C53.2557 102.37 54.0529 100.749 54.0529 98.6146C54.0529 96.4798 53.2557 94.8589 51.6612 93.752C50.1465 92.6451 47.8345 92.0917 44.7252 92.0917H25.8306V73.5903H40.8985C44.0874 73.5903 46.3994 73.0764 47.8345 72.0485C49.3492 70.9416 50.1066 69.3998 50.1066 67.4232C50.1066 65.3675 49.3492 63.8257 47.8345 62.7979C46.3994 61.77 44.0874 61.2561 40.8985 61.2561H27.744V105.137Z" fill="white"/>
<path d="M91.6553 124.706V59.8329H118.682V124.706H91.6553ZM105.169 54.6146C100.226 54.6146 96.2793 53.31 93.3295 50.7008C90.3798 48.0917 88.9048 44.85 88.9048 40.9758C88.9048 37.1015 90.3798 33.8599 93.3295 31.2507C96.2793 28.6415 100.226 27.3369 105.169 27.3369C110.111 27.3369 114.058 28.5625 117.008 31.0135C119.957 33.4645 121.432 36.6272 121.432 40.5014C121.432 44.6128 119.957 48.0126 117.008 50.7008C114.058 53.31 110.111 54.6146 105.169 54.6146Z" fill="white"/>
<path d="M176.104 58.6469C181.126 58.6469 185.671 59.6748 189.736 61.7305C193.802 63.7071 196.991 66.8302 199.303 71.0997C201.695 75.3693 202.891 80.9039 202.891 87.7035V124.706H175.864V92.3289C175.864 88.2965 175.147 85.4501 173.712 83.7898C172.277 82.0503 170.324 81.1806 167.852 81.1806C166.019 81.1806 164.304 81.6155 162.71 82.4852C161.195 83.2758 159.96 84.6199 159.003 86.5175C158.126 88.4151 157.687 90.9848 157.687 94.2264V124.706H130.661V59.8329H156.372V78.8087L151.23 73.3531C153.781 68.4511 157.209 64.7745 161.514 62.3235C165.899 59.8724 170.762 58.6469 176.104 58.6469Z" fill="white"/>
<path d="M249.041 148.9C242.583 148.9 236.524 148.228 230.864 146.884C225.203 145.54 220.34 143.524 216.274 140.836L225.363 122.571C227.914 124.548 231.143 126.09 235.049 127.197C239.036 128.383 242.783 128.976 246.29 128.976C251.871 128.976 255.857 127.79 258.249 125.418C260.641 123.125 261.837 119.804 261.837 115.456V110L263.032 89.8383L263.152 69.6766V59.8329H288.863V111.779C288.863 124.35 285.355 133.68 278.34 139.768C271.324 145.856 261.558 148.9 249.041 148.9ZM243.779 121.148C238.278 121.148 233.136 119.883 228.353 117.353C223.569 114.744 219.702 111.107 216.753 106.442C213.803 101.777 212.328 96.2426 212.328 89.8383C212.328 83.434 213.803 77.8994 216.753 73.2345C219.702 68.5697 223.569 64.9722 228.353 62.4421C233.136 59.912 238.278 58.6469 243.779 58.6469C249.44 58.6469 254.064 59.7538 257.651 61.9677C261.318 64.1815 264.029 67.6209 265.783 72.2857C267.537 76.8715 268.414 82.7224 268.414 89.8383C268.414 96.9542 267.537 102.845 265.783 107.509C264.029 112.095 261.318 115.535 257.651 117.828C254.064 120.041 249.44 121.148 243.779 121.148ZM250.954 100.275C253.107 100.275 255.02 99.8401 256.694 98.9704C258.369 98.1007 259.684 96.8751 260.641 95.2938C261.597 93.7125 262.076 91.894 262.076 89.8383C262.076 87.7035 261.597 85.885 260.641 84.3828C259.684 82.8015 258.369 81.6155 256.694 80.8248C255.02 79.9551 253.107 79.5202 250.954 79.5202C248.881 79.5202 246.968 79.9551 245.214 80.8248C243.54 81.6155 242.185 82.8015 241.148 84.3828C240.192 85.885 239.713 87.7035 239.713 89.8383C239.713 91.894 240.192 93.7125 241.148 95.2938C242.185 96.8751 243.54 98.1007 245.214 98.9704C246.968 99.8401 248.881 100.275 250.954 100.275Z" fill="white"/>
<path d="M336.929 125.892C328.957 125.892 321.981 124.429 316.002 121.504C310.102 118.579 305.518 114.586 302.249 109.526C298.981 104.386 297.346 98.6146 297.346 92.2103C297.346 85.6478 298.941 79.8365 302.13 74.7763C305.398 69.7161 309.823 65.7628 315.404 62.9165C321.064 60.0701 327.402 58.6469 334.418 58.6469C340.876 58.6469 346.815 59.912 352.236 62.4421C357.737 64.9722 362.122 68.7278 365.391 73.7089C368.739 78.69 370.413 84.8572 370.413 92.2103C370.413 93.159 370.374 94.2264 370.294 95.4124C370.214 96.5194 370.134 97.5472 370.055 98.496H319.709V85.5687H355.704L345.539 89.0081C345.539 86.478 345.061 84.3432 344.104 82.6038C343.227 80.7853 341.992 79.4016 340.397 78.4528C338.803 77.425 336.889 76.9111 334.657 76.9111C332.425 76.9111 330.472 77.425 328.797 78.4528C327.203 79.4016 325.967 80.7853 325.09 82.6038C324.213 84.3432 323.775 86.478 323.775 89.0081V93.0405C323.775 95.8078 324.333 98.1797 325.449 100.156C326.565 102.133 328.16 103.635 330.232 104.663C332.305 105.612 334.817 106.086 337.766 106.086C340.796 106.086 343.267 105.691 345.181 104.9C347.174 104.11 349.247 102.924 351.399 101.342L365.51 115.456C362.321 118.855 358.375 121.465 353.671 123.283C349.047 125.022 343.467 125.892 336.929 125.892Z" fill="white"/>
<path d="M379.779 124.706V41.6874H424.505C436.065 41.6874 444.595 43.7431 450.096 47.8545C455.597 51.8868 458.347 57.0656 458.347 63.3909C458.347 67.5813 457.152 71.337 454.76 74.6577C452.448 77.8994 449.06 80.469 444.595 82.3666C440.131 84.2642 434.63 85.213 428.092 85.213L430.484 78.8087C437.021 78.8087 442.642 79.7179 447.346 81.5364C452.129 83.3549 455.796 86.0036 458.347 89.4825C460.978 92.8823 462.294 96.9937 462.294 101.817C462.294 109.012 459.264 114.625 453.205 118.658C447.226 122.69 438.456 124.706 426.896 124.706H379.779ZM407.523 105.137H424.505C427.614 105.137 429.926 104.584 431.441 103.477C433.035 102.37 433.832 100.749 433.832 98.6146C433.832 96.4798 433.035 94.8589 431.441 93.752C429.926 92.6451 427.614 92.0917 424.505 92.0917H405.61V73.5903H420.678C423.867 73.5903 426.179 73.0764 427.614 72.0485C429.129 70.9416 429.886 69.3998 429.886 67.4232C429.886 65.3675 429.129 63.8257 427.614 62.7979C426.179 61.77 423.867 61.2561 420.678 61.2561H407.523V105.137Z" fill="white"/>
<path d="M505.995 125.892C498.581 125.892 492.004 124.469 486.263 121.623C480.603 118.697 476.138 114.704 472.87 109.644C469.601 104.584 467.967 98.7727 467.967 92.2103C467.967 85.6478 469.601 79.8365 472.87 74.7763C476.138 69.7161 480.603 65.7628 486.263 62.9165C492.004 60.0701 498.581 58.6469 505.995 58.6469C513.409 58.6469 519.987 60.0701 525.727 62.9165C531.467 65.7628 535.932 69.7161 539.12 74.7763C542.389 79.8365 544.023 85.6478 544.023 92.2103C544.023 98.7727 542.389 104.584 539.12 109.644C535.932 114.704 531.467 118.697 525.727 121.623C519.987 124.469 513.409 125.892 505.995 125.892ZM505.995 105.019C507.988 105.019 509.782 104.545 511.376 103.596C512.971 102.647 514.247 101.224 515.203 99.3262C516.16 97.3495 516.638 94.9776 516.638 92.2103C516.638 89.3639 516.16 87.0315 515.203 85.213C514.247 83.3154 512.971 81.8922 511.376 80.9434C509.782 79.9946 507.988 79.5202 505.995 79.5202C504.002 79.5202 502.208 79.9946 500.614 80.9434C499.019 81.8922 497.744 83.3154 496.787 85.213C495.83 87.0315 495.352 89.3639 495.352 92.2103C495.352 94.9776 495.83 97.3495 496.787 99.3262C497.744 101.224 499.019 102.647 500.614 103.596C502.208 104.545 504.002 105.019 505.995 105.019Z" fill="white"/>
<path d="M505.995 148.9L574.528 84.62L573.811 100.038L505.995 27.3369H541.785L589.357 81.2992L578.116 82.1294L647.027 0.237211H675.369L592.825 98.7332V83.9084L678 175.763H647.027L577.039 101.817L588.4 103.359L541.785 148.9H505.995Z" fill="white"/>
<path d="M541.785 27.3369H505.995L515.203 0.237211L541.785 27.3369Z" fill="white"/>
<path d="M541.785 148.9H505.995L515.203 175.763L541.785 148.9Z" fill="white"/>
<path d="M505.995 27.3369H0L0.239204 0.237211H515.203L505.995 27.3369Z" fill="white"/>
<path d="M515.203 175.763H0.239187L0 148.9H505.995L515.203 175.763Z" fill="white"/>
<path d="M27.744 0L27.744 175.763L0 176L1.73386e-05 0.237211L27.744 0Z" fill="white"/>
</svg>
