<svg xmlns="http://www.w3.org/2000/svg" xmlns:xlink="http://www.w3.org/1999/xlink" width="500" zoomAndPan="magnify" viewBox="0 0 375 374.999991" height="500" preserveAspectRatio="xMidYMid meet" version="1.0"><defs><clipPath id="b8ecf99044"><path d="M 8 30 L 375 30 L 375 350.886719 L 8 350.886719 Z M 8 30 " clip-rule="nonzero"/></clipPath></defs><g clip-path="url(#b8ecf99044)"><path fill="#ffffff" d="M 192.136719 351.035156 C 189.671875 351.019531 188.074219 349.628906 187.707031 349.292969 L 45.472656 207.058594 C 11.617188 176.421875 -0.0273438 129.726562 15.753906 90.960938 C 34.140625 45.78125 80.558594 33.992188 83.683594 33.261719 C 123.570312 23.953125 166.195312 41.292969 192.179688 76.671875 C 218.160156 41.292969 260.796875 23.957031 300.671875 33.261719 C 302.675781 33.730469 350.003906 45.246094 368.605469 90.960938 C 384.503906 130.03125 372.558594 176.667969 338.886719 207.058594 L 196.648438 349.292969 C 196.292969 349.621094 194.652344 351.050781 192.136719 351.035156 Z M 192.136719 351.035156 " fill-opacity="1" fill-rule="nonzero"/></g></svg>