<svg xmlns="http://www.w3.org/2000/svg" xmlns:xlink="http://www.w3.org/1999/xlink" width="500" zoomAndPan="magnify" viewBox="0 0 375 374.999991" height="500" preserveAspectRatio="xMidYMid meet" version="1.0"><defs><clipPath id="6a91144455"><path d="M 60.757812 60.757812 L 314.257812 60.757812 L 314.257812 314.257812 L 60.757812 314.257812 Z M 60.757812 60.757812 " clip-rule="nonzero"/></clipPath></defs><g clip-path="url(#6a91144455)"><path fill="#ffffff" d="M 187.496094 60.757812 C 117.617188 60.757812 60.757812 117.617188 60.757812 187.496094 C 60.757812 257.375 117.617188 314.234375 187.496094 314.234375 C 257.375 314.234375 314.234375 257.375 314.234375 187.496094 C 314.234375 117.617188 257.375 60.757812 187.496094 60.757812 Z M 116.316406 272.417969 C 117.496094 234.136719 148.925781 203.339844 187.496094 203.339844 C 226.0625 203.339844 257.496094 234.136719 258.675781 272.417969 C 239.394531 288.601562 214.578125 298.390625 187.496094 298.390625 C 160.414062 298.390625 135.597656 288.601562 116.316406 272.417969 Z M 147.890625 147.890625 C 147.890625 126.050781 165.65625 108.285156 187.496094 108.285156 C 209.335938 108.285156 227.101562 126.050781 227.101562 147.890625 C 227.101562 169.730469 209.335938 187.496094 187.496094 187.496094 C 165.65625 187.496094 147.890625 169.730469 147.890625 147.890625 Z M 272.996094 258.035156 C 267.261719 228.425781 246.492188 204.1875 218.980469 193.46875 C 233.4375 183.457031 242.945312 166.765625 242.945312 147.890625 C 242.945312 117.324219 218.0625 92.441406 187.496094 92.441406 C 156.929688 92.441406 132.046875 117.324219 132.046875 147.890625 C 132.046875 166.765625 141.554688 183.457031 156.007812 193.476562 C 128.5 204.195312 107.730469 228.433594 101.988281 258.042969 C 86.136719 238.855469 76.601562 214.269531 76.601562 187.496094 C 76.601562 126.34375 126.34375 76.601562 187.496094 76.601562 C 248.648438 76.601562 298.390625 126.34375 298.390625 187.496094 C 298.390625 214.269531 288.855469 238.855469 272.996094 258.035156 Z M 272.996094 258.035156 " fill-opacity="1" fill-rule="nonzero"/></g></svg>