<svg xmlns="http://www.w3.org/2000/svg" xmlns:xlink="http://www.w3.org/1999/xlink" width="500" zoomAndPan="magnify" viewBox="0 0 375 374.999991" height="500" preserveAspectRatio="xMidYMid meet" version="1.0"><defs><clipPath id="cc5455b681"><path d="M 204 189 L 262 189 L 262 247.5625 L 204 247.5625 Z M 204 189 " clip-rule="nonzero"/></clipPath></defs><path fill="#ffffff" d="M 174.449219 217.34375 C 173.277344 217.34375 172.109375 217.308594 170.9375 217.238281 C 169.769531 217.167969 168.605469 217.058594 167.441406 216.917969 C 166.277344 216.773438 165.121094 216.59375 163.96875 216.382812 C 162.820312 216.167969 161.675781 215.917969 160.539062 215.632812 C 159.402344 215.351562 158.277344 215.03125 157.160156 214.679688 C 156.042969 214.324219 154.9375 213.9375 153.84375 213.515625 C 152.75 213.09375 151.671875 212.640625 150.605469 212.152344 C 149.542969 211.667969 148.492188 211.148438 147.460938 210.59375 C 146.425781 210.042969 145.410156 209.460938 144.414062 208.847656 C 143.417969 208.230469 142.4375 207.585938 141.480469 206.914062 C 140.523438 206.238281 139.585938 205.535156 138.671875 204.804688 C 137.757812 204.074219 136.867188 203.3125 135.996094 202.527344 C 135.128906 201.742188 134.285156 200.929688 133.46875 200.089844 C 132.648438 199.253906 131.859375 198.390625 131.09375 197.503906 C 130.328125 196.617188 129.589844 195.707031 128.882812 194.773438 C 128.171875 193.84375 127.492188 192.890625 126.839844 191.917969 C 126.191406 190.941406 125.570312 189.949219 124.980469 188.9375 C 124.390625 187.925781 123.832031 186.898438 123.304688 185.851562 C 122.777344 184.804688 122.285156 183.742188 121.820312 182.667969 C 121.359375 181.589844 120.933594 180.5 120.539062 179.398438 C 120.140625 178.296875 119.78125 177.179688 119.457031 176.054688 C 119.128906 174.929688 118.835938 173.796875 118.582031 172.65625 C 118.324219 171.511719 118.101562 170.363281 117.917969 169.207031 C 117.730469 168.050781 117.582031 166.886719 117.464844 165.722656 C 117.351562 164.558594 117.273438 163.386719 117.226562 162.21875 C 117.183594 161.046875 117.179688 159.875 117.207031 158.707031 C 117.234375 157.535156 117.300781 156.367188 117.402344 155.199219 C 117.5 154.03125 117.636719 152.871094 117.808594 151.710938 C 117.980469 150.550781 118.1875 149.398438 118.429688 148.253906 C 118.675781 147.109375 118.953125 145.96875 119.265625 144.839844 C 119.578125 143.710938 119.921875 142.59375 120.304688 141.488281 C 120.6875 140.378906 121.101562 139.285156 121.550781 138.203125 C 121.996094 137.121094 122.476562 136.054688 122.992188 135 C 123.507812 133.949219 124.050781 132.914062 124.628906 131.894531 C 125.207031 130.875 125.816406 129.875 126.453125 128.890625 C 127.09375 127.910156 127.761719 126.949219 128.460938 126.007812 C 129.15625 125.066406 129.882812 124.148438 130.636719 123.253906 C 131.390625 122.355469 132.171875 121.484375 132.980469 120.636719 C 133.789062 119.789062 134.621094 118.964844 135.480469 118.167969 C 136.339844 117.371094 137.222656 116.601562 138.125 115.859375 C 139.03125 115.117188 139.960938 114.402344 140.910156 113.714844 C 141.859375 113.03125 142.828125 112.375 143.816406 111.75 C 144.808594 111.121094 145.816406 110.527344 146.84375 109.960938 C 147.867188 109.398438 148.910156 108.867188 149.96875 108.363281 C 151.03125 107.863281 152.101562 107.398438 153.191406 106.960938 C 154.277344 106.527344 155.378906 106.128906 156.492188 105.761719 C 157.601562 105.394531 158.726562 105.0625 159.859375 104.761719 C 160.992188 104.464844 162.132812 104.203125 163.28125 103.972656 C 164.429688 103.746094 165.585938 103.554688 166.746094 103.394531 C 167.90625 103.238281 169.070312 103.117188 170.238281 103.03125 C 171.40625 102.945312 172.578125 102.894531 173.746094 102.882812 C 174.917969 102.867188 176.089844 102.890625 177.257812 102.949219 C 178.429688 103.007812 179.597656 103.101562 180.761719 103.230469 C 181.925781 103.359375 183.082031 103.527344 184.238281 103.726562 C 185.390625 103.925781 186.539062 104.164062 187.675781 104.433594 C 188.816406 104.707031 189.945312 105.011719 191.066406 105.351562 C 192.1875 105.691406 193.296875 106.066406 194.394531 106.476562 C 195.492188 106.886719 196.578125 107.328125 197.648438 107.800781 C 198.71875 108.277344 199.773438 108.785156 200.8125 109.324219 C 201.851562 109.867188 202.875 110.4375 203.878906 111.039062 C 204.882812 111.644531 205.867188 112.277344 206.832031 112.9375 C 207.796875 113.601562 208.742188 114.296875 209.664062 115.015625 C 210.585938 115.738281 211.488281 116.488281 212.363281 117.261719 C 213.242188 118.039062 214.09375 118.84375 214.921875 119.671875 C 215.914062 120.664062 216.871094 121.691406 217.789062 122.757812 C 218.710938 123.820312 219.585938 124.914062 220.425781 126.042969 C 221.261719 127.171875 222.058594 128.332031 222.8125 129.519531 C 223.5625 130.703125 224.269531 131.917969 224.933594 133.15625 C 225.597656 134.394531 226.214844 135.65625 226.785156 136.941406 C 227.355469 138.226562 227.875 139.53125 228.347656 140.855469 C 228.824219 142.175781 229.246094 143.515625 229.625 144.871094 C 230 146.226562 230.324219 147.589844 230.597656 148.96875 C 230.871094 150.347656 231.097656 151.734375 231.269531 153.128906 C 231.441406 154.523438 231.5625 155.921875 231.628906 157.328125 C 231.699219 158.730469 231.71875 160.136719 231.683594 161.539062 C 231.648438 162.945312 231.5625 164.347656 231.425781 165.746094 C 231.285156 167.144531 231.097656 168.535156 230.859375 169.921875 C 230.617188 171.304688 230.328125 172.679688 229.984375 174.042969 C 229.644531 175.40625 229.253906 176.753906 228.8125 178.089844 C 228.371094 179.425781 227.878906 180.742188 227.34375 182.039062 C 226.804688 183.335938 226.21875 184.613281 225.585938 185.871094 C 224.957031 187.125 224.277344 188.355469 223.554688 189.558594 C 222.832031 190.765625 222.066406 191.941406 221.257812 193.089844 C 220.445312 194.242188 219.597656 195.359375 218.703125 196.445312 C 217.8125 197.53125 216.882812 198.582031 215.914062 199.601562 C 214.941406 200.617188 213.9375 201.597656 212.894531 202.542969 C 211.855469 203.484375 210.777344 204.386719 209.671875 205.253906 C 208.5625 206.117188 207.421875 206.9375 206.253906 207.71875 C 205.085938 208.5 203.890625 209.234375 202.667969 209.925781 C 201.441406 210.621094 200.195312 211.265625 198.925781 211.867188 C 197.652344 212.464844 196.363281 213.019531 195.050781 213.523438 C 193.738281 214.027344 192.410156 214.484375 191.066406 214.890625 C 189.722656 215.300781 188.363281 215.65625 186.992188 215.964844 C 185.621094 216.269531 184.238281 216.527344 182.847656 216.730469 C 181.457031 216.9375 180.0625 217.089844 178.660156 217.191406 C 177.257812 217.292969 175.855469 217.34375 174.449219 217.34375 Z M 174.449219 115.488281 C 173.597656 115.488281 172.742188 115.507812 171.890625 115.554688 C 171.039062 115.601562 170.191406 115.675781 169.34375 115.769531 C 168.496094 115.867188 167.652344 115.984375 166.808594 116.128906 C 165.96875 116.273438 165.132812 116.441406 164.300781 116.632812 C 163.46875 116.824219 162.644531 117.042969 161.828125 117.28125 C 161.007812 117.519531 160.195312 117.78125 159.390625 118.066406 C 158.589844 118.355469 157.792969 118.664062 157.007812 118.992188 C 156.222656 119.324219 155.445312 119.679688 154.679688 120.054688 C 153.914062 120.429688 153.160156 120.828125 152.414062 121.246094 C 151.671875 121.664062 150.941406 122.105469 150.222656 122.566406 C 149.507812 123.027344 148.800781 123.507812 148.113281 124.011719 C 147.421875 124.511719 146.746094 125.03125 146.085938 125.570312 C 145.425781 126.113281 144.78125 126.671875 144.152344 127.246094 C 143.523438 127.824219 142.910156 128.417969 142.316406 129.03125 C 141.722656 129.644531 141.148438 130.269531 140.589844 130.917969 C 140.03125 131.5625 139.492188 132.222656 138.96875 132.898438 C 138.449219 133.574219 137.949219 134.265625 137.46875 134.96875 C 136.988281 135.671875 136.527344 136.390625 136.085938 137.121094 C 135.648438 137.851562 135.226562 138.597656 134.832031 139.351562 C 134.433594 140.105469 134.058594 140.871094 133.703125 141.648438 C 133.351562 142.425781 133.019531 143.210938 132.710938 144.007812 C 132.40625 144.800781 132.117188 145.605469 131.855469 146.417969 C 131.59375 147.230469 131.355469 148.046875 131.140625 148.875 C 130.925781 149.699219 130.734375 150.53125 130.566406 151.367188 C 130.398438 152.203125 130.253906 153.042969 130.136719 153.890625 C 130.015625 154.734375 129.921875 155.582031 129.851562 156.429688 C 129.777344 157.28125 129.734375 158.132812 129.710938 158.984375 C 129.6875 159.839844 129.691406 160.691406 129.71875 161.542969 C 129.746094 162.398438 129.796875 163.25 129.871094 164.097656 C 129.945312 164.949219 130.046875 165.792969 130.171875 166.640625 C 130.292969 167.484375 130.441406 168.324219 130.613281 169.160156 C 130.789062 169.992188 130.984375 170.824219 131.203125 171.648438 C 131.421875 172.472656 131.667969 173.289062 131.933594 174.101562 C 132.199219 174.910156 132.488281 175.710938 132.800781 176.507812 C 133.113281 177.300781 133.449219 178.085938 133.808594 178.859375 C 134.164062 179.632812 134.542969 180.398438 134.945312 181.148438 C 135.347656 181.902344 135.769531 182.644531 136.214844 183.371094 C 136.65625 184.101562 137.121094 184.816406 137.605469 185.519531 C 138.089844 186.21875 138.597656 186.90625 139.121094 187.582031 C 139.644531 188.253906 140.1875 188.910156 140.75 189.554688 C 141.3125 190.195312 141.890625 190.820312 142.488281 191.429688 C 143.085938 192.039062 143.703125 192.628906 144.332031 193.203125 C 144.964844 193.777344 145.613281 194.332031 146.277344 194.867188 C 146.9375 195.402344 147.617188 195.921875 148.308594 196.417969 C 149.003906 196.917969 149.710938 197.394531 150.429688 197.851562 C 151.152344 198.308594 151.882812 198.742188 152.628906 199.160156 C 153.375 199.574219 154.132812 199.964844 154.898438 200.339844 C 155.667969 200.710938 156.445312 201.058594 157.234375 201.386719 C 158.019531 201.714844 158.816406 202.015625 159.625 202.296875 C 160.429688 202.578125 161.242188 202.839844 162.0625 203.074219 C 162.882812 203.308594 163.707031 203.519531 164.539062 203.707031 C 165.375 203.894531 166.210938 204.058594 167.050781 204.195312 C 167.894531 204.335938 168.738281 204.449219 169.585938 204.542969 C 170.433594 204.632812 171.285156 204.699219 172.136719 204.742188 C 172.988281 204.785156 173.84375 204.800781 174.695312 204.796875 C 175.546875 204.789062 176.402344 204.757812 177.25 204.703125 C 178.101562 204.648438 178.953125 204.566406 179.800781 204.460938 C 180.644531 204.359375 181.488281 204.230469 182.328125 204.078125 C 183.167969 203.925781 184.003906 203.75 184.832031 203.550781 C 185.660156 203.347656 186.484375 203.125 187.300781 202.878906 C 188.117188 202.628906 188.925781 202.359375 189.726562 202.066406 C 190.527344 201.773438 191.320312 201.457031 192.101562 201.117188 C 192.882812 200.777344 193.65625 200.414062 194.417969 200.03125 C 195.179688 199.648438 195.933594 199.242188 196.671875 198.816406 C 197.410156 198.390625 198.136719 197.945312 198.847656 197.476562 C 199.5625 197.007812 200.261719 196.519531 200.945312 196.011719 C 201.632812 195.503906 202.300781 194.976562 202.957031 194.429688 C 203.613281 193.882812 204.25 193.316406 204.875 192.734375 C 205.496094 192.152344 206.101562 191.550781 206.691406 190.933594 C 207.277344 190.316406 207.847656 189.679688 208.402344 189.03125 C 208.953125 188.378906 209.484375 187.714844 210 187.03125 C 210.511719 186.351562 211.007812 185.65625 211.480469 184.945312 C 211.953125 184.238281 212.40625 183.515625 212.839844 182.78125 C 213.273438 182.042969 213.683594 181.296875 214.074219 180.539062 C 214.464844 179.777344 214.832031 179.007812 215.175781 178.230469 C 215.523438 177.449219 215.84375 176.660156 216.144531 175.863281 C 216.445312 175.0625 216.722656 174.257812 216.976562 173.441406 C 217.230469 172.628906 217.460938 171.808594 217.667969 170.980469 C 217.875 170.152344 218.058594 169.320312 218.21875 168.480469 C 218.378906 167.640625 218.511719 166.800781 218.625 165.953125 C 218.734375 165.109375 218.820312 164.261719 218.882812 163.410156 C 218.945312 162.558594 218.984375 161.707031 218.996094 160.851562 C 219.011719 160 219 159.148438 218.964844 158.296875 C 218.929688 157.441406 218.871094 156.59375 218.785156 155.742188 C 218.703125 154.894531 218.59375 154.046875 218.460938 153.207031 C 218.328125 152.363281 218.171875 151.523438 217.992188 150.691406 C 217.8125 149.855469 217.605469 149.027344 217.378906 148.207031 C 217.152344 147.382812 216.898438 146.570312 216.625 145.761719 C 216.351562 144.953125 216.050781 144.15625 215.730469 143.363281 C 215.410156 142.574219 215.066406 141.792969 214.703125 141.023438 C 214.335938 140.25 213.949219 139.492188 213.542969 138.742188 C 213.132812 137.992188 212.703125 137.257812 212.25 136.53125 C 211.800781 135.808594 211.328125 135.097656 210.835938 134.402344 C 210.34375 133.703125 209.835938 133.019531 209.304688 132.355469 C 208.773438 131.6875 208.222656 131.035156 207.65625 130.398438 C 207.085938 129.761719 206.5 129.140625 205.894531 128.539062 C 203.832031 126.472656 201.585938 124.628906 199.15625 123.003906 C 196.730469 121.378906 194.167969 120.007812 191.46875 118.890625 C 188.773438 117.769531 185.992188 116.925781 183.125 116.351562 C 180.261719 115.78125 177.371094 115.492188 174.449219 115.488281 Z M 174.449219 115.488281 " fill-opacity="1" fill-rule="nonzero"/><g clip-path="url(#cc5455b681)"><path fill="#ffffff" d="M 255.582031 247.5625 C 254.75 247.558594 253.949219 247.398438 253.179688 247.078125 C 252.414062 246.753906 251.734375 246.300781 251.148438 245.707031 L 206.023438 200.613281 C 205.730469 200.320312 205.46875 200.003906 205.238281 199.660156 C 205.011719 199.316406 204.816406 198.953125 204.65625 198.574219 C 204.5 198.191406 204.378906 197.796875 204.300781 197.390625 C 204.21875 196.988281 204.179688 196.578125 204.179688 196.164062 C 204.179688 195.75 204.21875 195.34375 204.300781 194.9375 C 204.378906 194.53125 204.5 194.136719 204.65625 193.757812 C 204.816406 193.375 205.011719 193.011719 205.238281 192.667969 C 205.46875 192.324219 205.730469 192.007812 206.023438 191.714844 C 206.3125 191.421875 206.632812 191.160156 206.976562 190.933594 C 207.320312 190.703125 207.683594 190.507812 208.0625 190.351562 C 208.445312 190.191406 208.839844 190.074219 209.242188 189.992188 C 209.648438 189.914062 210.058594 189.871094 210.472656 189.871094 C 210.886719 189.871094 211.292969 189.914062 211.699219 189.992188 C 212.105469 190.074219 212.5 190.191406 212.878906 190.351562 C 213.261719 190.507812 213.625 190.703125 213.96875 190.933594 C 214.3125 191.160156 214.628906 191.421875 214.921875 191.714844 L 260.015625 236.839844 C 260.453125 237.28125 260.816406 237.773438 261.109375 238.320312 C 261.398438 238.867188 261.605469 239.445312 261.726562 240.054688 C 261.84375 240.664062 261.875 241.277344 261.8125 241.894531 C 261.753906 242.511719 261.605469 243.105469 261.367188 243.679688 C 261.128906 244.25 260.816406 244.777344 260.421875 245.257812 C 260.03125 245.738281 259.578125 246.148438 259.0625 246.496094 C 258.546875 246.839844 257.992188 247.105469 257.402344 247.289062 C 256.808594 247.46875 256.203125 247.5625 255.582031 247.5625 Z M 255.582031 247.5625 " fill-opacity="1" fill-rule="nonzero"/></g></svg>