<svg xmlns="http://www.w3.org/2000/svg" xmlns:xlink="http://www.w3.org/1999/xlink" width="500" zoomAndPan="magnify" viewBox="0 0 375 374.999991" height="500" preserveAspectRatio="xMidYMid meet" version="1.0"><path fill="#ffffff" d="M 160.964844 278.539062 C 158.585938 278.539062 156.207031 278.46875 153.828125 278.320312 C 151.453125 278.175781 149.082031 277.960938 146.71875 277.667969 C 144.355469 277.378906 142.003906 277.015625 139.660156 276.582031 C 137.320312 276.144531 134.992188 275.640625 132.683594 275.0625 C 130.375 274.484375 128.082031 273.835938 125.8125 273.117188 C 123.542969 272.398438 121.296875 271.613281 119.074219 270.757812 C 116.851562 269.898438 114.65625 268.976562 112.492188 267.984375 C 110.328125 266.996094 108.195312 265.9375 106.09375 264.816406 C 103.992188 263.695312 101.929688 262.507812 99.902344 261.261719 C 97.875 260.011719 95.886719 258.703125 93.9375 257.332031 C 91.992188 255.960938 90.089844 254.53125 88.230469 253.042969 C 86.367188 251.558594 84.558594 250.015625 82.792969 248.414062 C 81.027344 246.816406 79.3125 245.164062 77.648438 243.460938 C 75.984375 241.757812 74.375 240.003906 72.820312 238.199219 C 71.265625 236.398438 69.765625 234.550781 68.324219 232.652344 C 66.882812 230.757812 65.5 228.820312 64.175781 226.84375 C 62.851562 224.863281 61.589844 222.84375 60.390625 220.785156 C 59.191406 218.730469 58.054688 216.636719 56.984375 214.511719 C 55.914062 212.382812 54.910156 210.226562 53.972656 208.039062 C 53.03125 205.847656 52.160156 203.632812 51.359375 201.390625 C 50.558594 199.148438 49.824219 196.886719 49.160156 194.597656 C 48.496094 192.3125 47.90625 190.003906 47.382812 187.683594 C 46.859375 185.359375 46.410156 183.019531 46.03125 180.671875 C 45.652344 178.320312 45.347656 175.957031 45.113281 173.589844 C 44.882812 171.21875 44.71875 168.84375 44.632812 166.464844 C 44.546875 164.085938 44.53125 161.703125 44.589844 159.324219 C 44.648438 156.945312 44.777344 154.566406 44.984375 152.195312 C 45.1875 149.820312 45.464844 147.457031 45.8125 145.101562 C 46.164062 142.746094 46.585938 140.402344 47.078125 138.074219 C 47.570312 135.746094 48.136719 133.433594 48.769531 131.136719 C 49.40625 128.84375 50.113281 126.570312 50.886719 124.316406 C 51.660156 122.066406 52.503906 119.839844 53.417969 117.640625 C 54.328125 115.441406 55.304688 113.269531 56.351562 111.128906 C 57.394531 108.988281 58.503906 106.882812 59.679688 104.8125 C 60.855469 102.742188 62.089844 100.707031 63.390625 98.710938 C 64.6875 96.714844 66.046875 94.761719 67.464844 92.847656 C 68.886719 90.9375 70.359375 89.070312 71.894531 87.246094 C 73.429688 85.425781 75.015625 83.652344 76.660156 81.929688 C 78.300781 80.203125 79.996094 78.53125 81.738281 76.910156 C 83.484375 75.292969 85.277344 73.726562 87.121094 72.214844 C 88.960938 70.707031 90.847656 69.253906 92.777344 67.859375 C 94.707031 66.464844 96.679688 65.128906 98.691406 63.855469 C 100.703125 62.582031 102.753906 61.375 104.839844 60.226562 C 106.925781 59.078125 109.046875 57.996094 111.199219 56.976562 C 113.351562 55.960938 115.535156 55.011719 117.746094 54.128906 C 119.957031 53.242188 122.191406 52.429688 124.453125 51.683594 C 126.714844 50.9375 129 50.261719 131.300781 49.65625 C 133.605469 49.046875 135.921875 48.515625 138.257812 48.050781 C 140.59375 47.585938 142.941406 47.195312 145.300781 46.875 C 147.664062 46.554688 150.03125 46.308594 152.40625 46.136719 C 154.78125 45.960938 157.15625 45.859375 159.539062 45.832031 C 161.921875 45.804688 164.300781 45.847656 166.679688 45.96875 C 169.054688 46.085938 171.429688 46.277344 173.796875 46.539062 C 176.164062 46.804688 178.519531 47.140625 180.863281 47.546875 C 183.210938 47.957031 185.542969 48.4375 187.859375 48.988281 C 190.175781 49.539062 192.472656 50.160156 194.75 50.855469 C 197.03125 51.546875 199.285156 52.308594 201.515625 53.140625 C 203.746094 53.96875 205.953125 54.867188 208.128906 55.835938 C 210.304688 56.800781 212.449219 57.832031 214.5625 58.933594 C 216.675781 60.03125 218.753906 61.191406 220.796875 62.417969 C 222.835938 63.644531 224.839844 64.929688 226.800781 66.277344 C 228.765625 67.625 230.683594 69.035156 232.558594 70.5 C 234.4375 71.96875 236.265625 73.488281 238.050781 75.066406 C 239.832031 76.648438 241.5625 78.277344 243.246094 79.964844 C 245.269531 81.984375 247.214844 84.074219 249.082031 86.238281 C 250.949219 88.398438 252.734375 90.628906 254.4375 92.921875 C 256.140625 95.214844 257.757812 97.570312 259.285156 99.984375 C 260.816406 102.394531 262.253906 104.863281 263.601562 107.382812 C 264.949219 109.902344 266.203125 112.464844 267.363281 115.078125 C 268.523438 117.691406 269.582031 120.339844 270.546875 123.03125 C 271.511719 125.722656 272.375 128.441406 273.136719 131.195312 C 273.898438 133.949219 274.558594 136.726562 275.117188 139.53125 C 275.675781 142.332031 276.128906 145.152344 276.480469 147.988281 C 276.832031 150.824219 277.078125 153.667969 277.21875 156.519531 C 277.359375 159.375 277.394531 162.230469 277.324219 165.085938 C 277.253906 167.941406 277.078125 170.792969 276.796875 173.636719 C 276.519531 176.480469 276.132812 179.308594 275.644531 182.125 C 275.15625 184.941406 274.566406 187.734375 273.871094 190.503906 C 273.175781 193.277344 272.382812 196.019531 271.484375 198.734375 C 270.589844 201.445312 269.59375 204.121094 268.5 206.761719 C 267.40625 209.402344 266.21875 211.996094 264.933594 214.550781 C 263.648438 217.101562 262.269531 219.601562 260.800781 222.054688 C 259.332031 224.503906 257.773438 226.894531 256.125 229.230469 C 254.480469 231.566406 252.75 233.839844 250.9375 236.046875 C 249.125 238.257812 247.234375 240.394531 245.261719 242.464844 C 243.289062 244.53125 241.246094 246.523438 239.128906 248.441406 C 237.011719 250.359375 234.824219 252.199219 232.570312 253.957031 C 230.316406 255.710938 228.003906 257.382812 225.625 258.96875 C 223.25 260.554688 220.820312 262.054688 218.332031 263.460938 C 215.84375 264.867188 213.308594 266.179688 210.726562 267.402344 C 208.140625 268.621094 205.515625 269.746094 202.851562 270.769531 C 200.183594 271.796875 197.484375 272.726562 194.75 273.550781 C 192.015625 274.378906 189.253906 275.105469 186.464844 275.730469 C 183.675781 276.355469 180.867188 276.875 178.042969 277.292969 C 175.214844 277.710938 172.375 278.023438 169.527344 278.230469 C 166.675781 278.4375 163.824219 278.539062 160.964844 278.539062 Z M 160.964844 71.460938 C 159.230469 71.457031 157.5 71.503906 155.765625 71.597656 C 154.035156 71.695312 152.308594 71.839844 150.582031 72.03125 C 148.859375 72.226562 147.144531 72.472656 145.433594 72.765625 C 143.722656 73.058594 142.023438 73.398438 140.335938 73.789062 C 138.644531 74.179688 136.96875 74.617188 135.300781 75.105469 C 133.636719 75.589844 131.988281 76.125 130.351562 76.707031 C 128.71875 77.285156 127.101562 77.914062 125.503906 78.585938 C 123.90625 79.261719 122.328125 79.980469 120.769531 80.742188 C 119.214844 81.507812 117.679688 82.316406 116.167969 83.167969 C 114.660156 84.019531 113.171875 84.914062 111.714844 85.851562 C 110.253906 86.789062 108.824219 87.765625 107.417969 88.785156 C 106.015625 89.804688 104.644531 90.863281 103.300781 91.960938 C 101.957031 93.058594 100.648438 94.195312 99.367188 95.367188 C 98.089844 96.539062 96.847656 97.75 95.640625 98.992188 C 94.429688 100.238281 93.257812 101.515625 92.125 102.828125 C 90.988281 104.136719 89.890625 105.480469 88.832031 106.855469 C 87.777344 108.230469 86.757812 109.632812 85.78125 111.066406 C 84.800781 112.496094 83.867188 113.957031 82.972656 115.445312 C 82.078125 116.929688 81.226562 118.441406 80.417969 119.976562 C 79.613281 121.511719 78.847656 123.066406 78.128906 124.644531 C 77.410156 126.226562 76.738281 127.824219 76.113281 129.441406 C 75.484375 131.058594 74.90625 132.691406 74.371094 134.34375 C 73.839844 135.992188 73.355469 137.65625 72.917969 139.335938 C 72.480469 141.011719 72.089844 142.703125 71.75 144.402344 C 71.40625 146.105469 71.117188 147.8125 70.875 149.53125 C 70.628906 151.25 70.4375 152.972656 70.292969 154.699219 C 70.148438 156.429688 70.054688 158.160156 70.007812 159.894531 C 69.964844 161.628906 69.96875 163.359375 70.023438 165.09375 C 70.078125 166.828125 70.183594 168.558594 70.335938 170.285156 C 70.488281 172.015625 70.691406 173.734375 70.945312 175.453125 C 71.195312 177.167969 71.5 178.875 71.847656 180.574219 C 72.199219 182.273438 72.597656 183.960938 73.042969 185.636719 C 73.492188 187.3125 73.984375 188.972656 74.527344 190.621094 C 75.070312 192.269531 75.660156 193.898438 76.292969 195.515625 C 76.929688 197.128906 77.609375 198.722656 78.339844 200.296875 C 79.066406 201.871094 79.835938 203.425781 80.652344 204.953125 C 81.46875 206.484375 82.328125 207.992188 83.230469 209.472656 C 84.132812 210.953125 85.078125 212.40625 86.0625 213.835938 C 87.046875 215.261719 88.074219 216.660156 89.140625 218.027344 C 90.207031 219.398438 91.308594 220.734375 92.453125 222.039062 C 93.59375 223.34375 94.773438 224.617188 95.988281 225.851562 C 97.203125 227.089844 98.453125 228.292969 99.738281 229.457031 C 101.023438 230.625 102.339844 231.753906 103.6875 232.84375 C 105.035156 233.933594 106.414062 234.984375 107.824219 235.996094 C 109.234375 237.007812 110.667969 237.976562 112.132812 238.90625 C 113.597656 239.835938 115.089844 240.722656 116.605469 241.566406 C 118.121094 242.410156 119.660156 243.207031 121.21875 243.964844 C 122.78125 244.71875 124.363281 245.429688 125.964844 246.09375 C 127.566406 246.757812 129.1875 247.378906 130.824219 247.949219 C 132.460938 248.523438 134.113281 249.046875 135.78125 249.523438 C 137.449219 250 139.128906 250.429688 140.820312 250.8125 C 142.511719 251.191406 144.214844 251.523438 145.925781 251.808594 C 147.636719 252.089844 149.355469 252.324219 151.078125 252.511719 C 152.804688 252.695312 154.53125 252.832031 156.265625 252.917969 C 157.996094 253.003906 159.730469 253.039062 161.464844 253.027344 C 163.199219 253.011719 164.933594 252.949219 166.664062 252.835938 C 168.394531 252.722656 170.121094 252.5625 171.839844 252.351562 C 173.5625 252.136719 175.277344 251.878906 176.984375 251.566406 C 178.691406 251.257812 180.386719 250.898438 182.074219 250.492188 C 183.757812 250.085938 185.429688 249.628906 187.089844 249.125 C 188.75 248.625 190.394531 248.074219 192.023438 247.476562 C 193.652344 246.878906 195.261719 246.234375 196.855469 245.546875 C 198.445312 244.855469 200.015625 244.121094 201.566406 243.34375 C 203.113281 242.5625 204.640625 241.738281 206.144531 240.871094 C 207.644531 240.003906 209.121094 239.097656 210.570312 238.144531 C 212.023438 237.191406 213.441406 236.199219 214.835938 235.167969 C 216.230469 234.132812 217.59375 233.0625 218.925781 231.949219 C 220.253906 230.839844 221.554688 229.691406 222.820312 228.503906 C 224.085938 227.320312 225.316406 226.097656 226.511719 224.84375 C 227.710938 223.585938 228.867188 222.296875 229.992188 220.972656 C 231.113281 219.652344 232.195312 218.296875 233.242188 216.914062 C 234.285156 215.527344 235.289062 214.113281 236.253906 212.671875 C 237.214844 211.230469 238.136719 209.761719 239.015625 208.265625 C 239.894531 206.773438 240.730469 205.253906 241.523438 203.710938 C 242.316406 202.167969 243.0625 200.601562 243.765625 199.015625 C 244.46875 197.429688 245.125 195.824219 245.734375 194.203125 C 246.347656 192.578125 246.910156 190.9375 247.425781 189.285156 C 247.941406 187.628906 248.410156 185.957031 248.832031 184.277344 C 249.253906 182.59375 249.625 180.898438 249.949219 179.195312 C 250.273438 177.492188 250.546875 175.78125 250.773438 174.058594 C 251 172.339844 251.175781 170.617188 251.304688 168.886719 C 251.429688 167.15625 251.507812 165.425781 251.535156 163.691406 C 251.5625 161.957031 251.539062 160.222656 251.46875 158.488281 C 251.398438 156.757812 251.277344 155.027344 251.105469 153.300781 C 250.933594 151.574219 250.714844 149.855469 250.445312 148.140625 C 250.175781 146.425781 249.855469 144.722656 249.488281 143.027344 C 249.121094 141.332031 248.707031 139.648438 248.242188 137.976562 C 247.78125 136.308594 247.269531 134.648438 246.710938 133.007812 C 246.152344 131.367188 245.546875 129.742188 244.894531 128.132812 C 244.242188 126.527344 243.546875 124.9375 242.800781 123.371094 C 242.058594 121.804688 241.273438 120.257812 240.441406 118.738281 C 239.609375 117.214844 238.738281 115.71875 237.820312 114.246094 C 236.902344 112.773438 235.945312 111.328125 234.945312 109.910156 C 233.945312 108.492188 232.90625 107.105469 231.824219 105.75 C 230.746094 104.390625 229.628906 103.066406 228.472656 101.769531 C 227.316406 100.476562 226.125 99.21875 224.898438 97.992188 C 222.804688 95.898438 220.613281 93.910156 218.324219 92.03125 C 216.035156 90.152344 213.660156 88.386719 211.199219 86.742188 C 208.738281 85.09375 206.199219 83.574219 203.589844 82.175781 C 200.976562 80.777344 198.304688 79.511719 195.566406 78.375 C 192.832031 77.238281 190.046875 76.242188 187.214844 75.378906 C 184.378906 74.515625 181.511719 73.796875 178.605469 73.214844 C 175.703125 72.636719 172.777344 72.199219 169.828125 71.90625 C 166.882812 71.613281 163.929688 71.464844 160.964844 71.460938 Z M 160.964844 71.460938 " fill-opacity="1" fill-rule="nonzero"/><path fill="#ffffff" d="M 325.910156 339.976562 C 324.21875 339.96875 322.589844 339.640625 321.03125 338.984375 C 319.46875 338.332031 318.089844 337.40625 316.898438 336.203125 L 225.152344 244.527344 C 224.558594 243.933594 224.03125 243.285156 223.5625 242.585938 C 223.097656 241.886719 222.703125 241.152344 222.382812 240.375 C 222.058594 239.597656 221.816406 238.800781 221.652344 237.976562 C 221.488281 237.152344 221.40625 236.320312 221.40625 235.480469 C 221.40625 234.640625 221.488281 233.808594 221.652344 232.984375 C 221.816406 232.160156 222.058594 231.359375 222.382812 230.582031 C 222.703125 229.808594 223.097656 229.070312 223.5625 228.371094 C 224.03125 227.671875 224.558594 227.027344 225.152344 226.433594 C 225.75 225.839844 226.394531 225.308594 227.09375 224.839844 C 227.792969 224.375 228.527344 223.980469 229.304688 223.660156 C 230.082031 223.339844 230.878906 223.09375 231.703125 222.929688 C 232.527344 222.769531 233.359375 222.6875 234.199219 222.6875 C 235.039062 222.6875 235.871094 222.769531 236.695312 222.929688 C 237.519531 223.09375 238.320312 223.339844 239.097656 223.660156 C 239.871094 223.980469 240.609375 224.375 241.308594 224.839844 C 242.007812 225.308594 242.652344 225.839844 243.246094 226.433594 L 334.925781 318.175781 C 335.816406 319.070312 336.554688 320.074219 337.148438 321.1875 C 337.738281 322.300781 338.15625 323.472656 338.402344 324.710938 C 338.644531 325.945312 338.707031 327.191406 338.582031 328.445312 C 338.457031 329.703125 338.15625 330.910156 337.675781 332.074219 C 337.191406 333.242188 336.550781 334.3125 335.753906 335.285156 C 334.957031 336.261719 334.035156 337.101562 332.988281 337.804688 C 331.941406 338.507812 330.816406 339.042969 329.609375 339.414062 C 328.40625 339.785156 327.171875 339.972656 325.910156 339.976562 Z M 325.910156 339.976562 " fill-opacity="1" fill-rule="nonzero"/></svg>